<svg xmlns="http://www.w3.org/2000/svg" viewBox="0 0 909.437 200.161"><defs><style>.cls-1{fill:#fff;stroke:#231f20;stroke-miterlimit:10;stroke-width:1.7777px}.cls-10{fill:#231f20}</style></defs><g id="Layer_2" data-name="Layer 2"><g id="Layer_1-2" data-name="Layer 1"><path class="cls-1" d="M890.185 41.638v116.867c0 13.136-10.423 23.788-23.26 23.788H42.512c-12.837 0-23.26-10.652-23.26-23.788V41.638a23.52 23.52 0 0 1 23.26-23.77h824.413a23.52 23.52 0 0 1 23.26 23.77Z"/><path class="cls-1" d="M882.455.889H26.982C12.572.889.889 12.81.889 27.537v145.07c0 14.726 11.682 26.665 26.093 26.665h855.473c14.41 0 26.093-11.939 26.093-26.665V27.537c0-14.727-11.682-26.648-26.093-26.648Zm18.223 164.997c0 13.994-11.105 25.343-24.798 25.343H33.558c-13.694 0-24.8-11.349-24.8-25.343V34.256c0-13.994 11.106-25.325 24.8-25.325H875.88c13.694 0 24.799 11.331 24.799 25.326Z"/><path d="M875.88 8.931H33.558c-13.694 0-24.8 11.332-24.8 25.326v131.63c0 13.994 11.106 25.343 24.8 25.343H875.88c13.694 0 24.799-11.35 24.799-25.343V34.257c0-13.994-11.106-25.326-24.799-25.326Zm14.305 149.574c0 13.136-10.423 23.788-23.26 23.788H42.512c-12.837 0-23.26-10.652-23.26-23.788V41.638a23.52 23.52 0 0 1 23.26-23.77h824.413a23.52 23.52 0 0 1 23.26 23.77Z" style="stroke-width:1.326px;fill:#231f20;stroke-miterlimit:10;stroke:#231f20"/><path d="M890.185 41.638v116.867c0 13.136-10.423 23.788-23.26 23.788H42.512c-12.837 0-23.26-10.652-23.26-23.788V41.638a23.52 23.52 0 0 1 23.26-23.77h824.413a23.52 23.52 0 0 1 23.26 23.77Z" style="stroke-width:1.326px;stroke-miterlimit:10;stroke:#231f20;fill:#fff"/><path d="M890.185 41.638v116.867c0 13.136-10.423 23.788-23.26 23.788H42.512c-12.837 0-23.26-10.652-23.26-23.788V41.638a23.52 23.52 0 0 1 23.26-23.77h824.413a23.52 23.52 0 0 1 23.26 23.77Z" style="stroke-width:1.2444px;stroke-miterlimit:10;stroke:#231f20;fill:#fff"/><path style="fill:#00b5e2" d="M42.296 32.149h77.58v13.049h-77.58z"/><path style="fill:#ef3340" d="M42.296 45.198h77.58v12.93h-77.58z"/><path style="fill:#509e2f" d="M42.296 58.128h77.58V70.94h-77.58z"/><path style="fill:#fff" d="m82.59 50.786-.955-2.009 2.008.955.746-2.096.745 2.096 2.008-.955-.954 2.009 2.095.745-2.095.745.954 2.009-2.008-.955-.745 2.095-.746-2.095-2.008.955.955-2.009-2.096-.745 2.096-.745z"/><path d="M81.31 46.491a5.813 5.813 0 0 0-5.689 1.06 5.275 5.275 0 0 0-1.66 2.995 5.363 5.363 0 0 0 7.427 5.909 5.27 5.27 0 0 1-3.353-1.178 6.185 6.185 0 0 1-1.8-3.846 4.952 4.952 0 0 1 1.395-3.45 6.43 6.43 0 0 1 3.68-1.49Z" style="stroke:#fff;stroke-width:.5388px;stroke-miterlimit:10;fill:#fff"/><path d="M62.692 108.867h5.024l15.477 41.983H76.84l-11.637-33.87-11.636 33.87h-6.352Zm-8.345 27.17h22.09v5.602h-22.09Zm58.99-22.087L95.06 145.247h18.855v5.602H87.811v-5.082l18.422-31.299H88.332v-5.601h25.005Z"/><rect class="cls-10" x="339.357" y="90.591" width="25.532" height="19.064" rx="4"/><rect class="cls-10" x="554.25" y="90.591" width="25.532" height="19.064" rx="4"/></g></g></svg>