<svg width="40px" height="40px" viewBox="0 0 40 40" t="1569683618210" class="icon" version="1.1" xmlns="http://www.w3.org/2000/svg" p-id="12356" xmlns:xlink="http://www.w3.org/1999/xlink"><defs><style type="text/css"/></defs><path d="M36.913 16.093h-10a0.313 0.313 0 0 0 -0.313 0.313v1.875c0 0.172 0.14 0.313 0.313 0.313h10a0.313 0.313 0 0 0 0.313 -0.313V16.407a0.313 0.313 0 0 0 -0.313 -0.313zm-5.233 5.313h-4.767a0.313 0.313 0 0 0 -0.313 0.313v1.875c0 0.172 0.14 0.313 0.313 0.313h4.765a0.313 0.313 0 0 0 0.313 -0.313v-1.875a0.313 0.313 0 0 0 -0.313 -0.313zm-13.035 -8.808h-1.692a0.437 0.437 0 0 0 -0.437 0.437v9.688c0 0.14 0.067 0.27 0.18 0.352l5.817 4.242a0.438 0.438 0 0 0 0.61 -0.093l1.003 -1.372v-0.003a0.437 0.437 0 0 0 -0.098 -0.61l-4.95 -3.578V13.035a0.433 0.433 0 0 0 -0.433 -0.437z" p-id="12357"/><path d="M31.437 26.325h-2.257a0.647 0.647 0 0 0 -0.543 0.3 12.573 12.573 0 0 1 -1.738 2.175 12.392 12.392 0 0 1 -8.8 3.645 12.373 12.373 0 0 1 -8.8 -3.645A12.418 12.418 0 0 1 5.653 20a12.373 12.373 0 0 1 3.645 -8.8 12.392 12.392 0 0 1 8.8 -3.645 12.373 12.373 0 0 1 8.8 3.645c0.663 0.663 1.242 1.39 1.738 2.175 0.117 0.187 0.325 0.3 0.543 0.3h2.258a0.357 0.357 0 0 0 0.32 -0.52 15.273 15.273 0 0 0 -13.477 -8.425c-8.442 -0.105 -15.453 6.805 -15.468 15.238 -0.017 8.45 6.832 15.305 15.28 15.305a15.278 15.278 0 0 0 13.663 -8.43 0.358 0.358 0 0 0 -0.32 -0.52z" p-id="12358"/></svg>