<svg stroke="currentColor" fill="currentColor" stroke-width="0" viewBox="0 0 40 40" class="w-10 h-10" height="1.667em" width="1.667em" xmlns="http://www.w3.org/2000/svg"><path d="M21.25 4.583V7.5h3.291c0.585 0 1.157 0.177 1.64 0.505l2.828 1.924a0.415 0.415 0 0 0 0.233 0.071h6.836a1.25 1.25 0 0 1 0 2.5h-2.629l5.61 12.8a1.248 1.248 0 0 1 -0.384 1.493 5.917 5.917 0 0 1 -0.517 0.343 10.493 10.493 0 0 1 -1.316 0.665 12.248 12.248 0 0 1 -4.76 0.949 12.238 12.238 0 0 1 -4.758 -0.947 10.341 10.341 0 0 1 -1.316 -0.667 5.341 5.341 0 0 1 -0.512 -0.336l-0.008 -0.007a1.248 1.248 0 0 1 -0.384 -1.493l5.612 -12.8h-1.476a2.917 2.917 0 0 1 -1.64 -0.505l-2.828 -1.924a0.41 0.41 0 0 0 -0.233 -0.071h-3.291v24.167h7.478a1.25 1.25 0 0 1 0 2.5H11.272a1.25 1.25 0 0 1 0 -2.5h7.478V10h-3.291a0.415 0.415 0 0 0 -0.233 0.071l-2.826 1.924a2.92 2.92 0 0 1 -1.642 0.505H9.281l5.613 12.8a1.25 1.25 0 0 1 -0.348 1.463 5.347 5.347 0 0 1 -0.517 0.371 10.128 10.128 0 0 1 -1.32 0.722 11.54 11.54 0 0 1 -4.792 1.033 11.522 11.522 0 0 1 -4.793 -1.033 10.128 10.128 0 0 1 -1.32 -0.722 5.805 5.805 0 0 1 -0.515 -0.368 1.27 1.27 0 0 1 -0.35 -1.467l5.612 -12.799H3.922a1.25 1.25 0 0 1 0 -2.5h6.836a0.428 0.428 0 0 0 0.235 -0.071l2.825 -1.924a2.908 2.908 0 0 1 1.642 -0.505h3.29V4.583a1.25 1.25 0 0 1 2.5 0ZM3.655 25.33a9.023 9.023 0 0 0 4.262 1.058 9.023 9.023 0 0 0 4.262 -1.058l-4.262 -9.717Zm24.184 -0.04a10.04 10.04 0 0 0 0.458 0.21c0.884 0.371 2.175 0.75 3.787 0.75a9.745 9.745 0 0 0 4.245 -0.96l-4.245 -9.679Z"/></svg>