<svg stroke="currentColor" fill="none" stroke-width="2" viewBox="0 0 40 40" stroke-linecap="round" stroke-linejoin="round" class="w-10 h-10" height="1.667em" width="1.667em" xmlns="http://www.w3.org/2000/svg"><path d="M28.333 35v-3.333a6.667 6.667 0 0 0 -6.667 -6.667H8.333a6.667 6.667 0 0 0 -6.667 6.667v3.333"/><path cx="9" cy="7" r="4" d="M21.667 11.667A6.667 6.667 0 0 1 15 18.333A6.667 6.667 0 0 1 8.333 11.667A6.667 6.667 0 0 1 21.667 11.667z"/><path d="M38.333 35v-3.333a6.667 6.667 0 0 0 -5 -6.45"/><path d="M26.667 5.217a6.667 6.667 0 0 1 0 12.917"/></svg>