<svg stroke="currentColor" fill="currentColor" stroke-width="0" viewBox="0 0 40 40" class="w-10 h-10" height="40em" width="40em" xmlns="http://www.w3.org/2000/svg"><path d="M372.08 50.24a60 60 0 0 0 -104.16 0l-68.16 119.2a20 20 0 0 0 34.76 19.88l68.12 -119.24a20 20 0 0 1 34.72 0l101.6 177.76 -50.24 -13.48a20 20 0 1 0 -10.4 38.64l96.6 25.88a20 20 0 0 0 24.52 -14.12l25.88 -96.6a20 20 0 1 0 -38.64 -10.36l-13.32 49.68 -101.28 -177.24zM118.92 310.92l-50.2 13.48a20 20 0 1 1 -10.4 -38.64l96.64 -25.88a20 20 0 0 1 24.48 14.12l25.88 96.6a20 20 0 0 1 -38.64 10.36l-13.32 -49.68 -101.8 178.16a20 20 0 0 0 17.36 29.92H200a20 20 0 0 1 0 40H68.92A60 60 0 0 1 16.84 489.6l102.08 -178.68zm435.6 58.52a20 20 0 1 0 -34.72 19.84l68.64 120.16a20 20 0 0 1 -17.36 29.92h-222.8l25.88 -25.84a20 20 0 1 0 -28.32 -28.28l-60 60a19.92 19.92 0 0 0 0 28.28l60 60a20 20 0 1 0 28.32 -28.28l-25.88 -25.88h222.8a60 60 0 0 0 52.08 -89.76l-68.64 -120.16z"/></svg>